PathFileType	4	(X/Y/Z)	RBDS05static.trc
DataRate	CameraRate	NumFrames	NumMarkers	Units	OrigDataRate	OrigDataStartFrame	OrigNumFrames
150.000000	150.000000	4	48	mm	150.000000	56	150
Frame#	Time	L.Ankle			L.Ankle.Medial			L.ASIS			L.GTR			L.Heel.Bottom			L.Heel.Lateral			L.Heel.Top			L.HF			L.Iliac.Crest			L.Knee			L.Knee.Medial			L.MT1			L.MT2			L.MT5			L.PSIS			L.Shank.Bottom.Lateral			L.Shank.Bottom.Medial			L.Shank.Top.Lateral			L.Shank.Top.Medial			L.Thigh.Bottom.Lateral			L.Thigh.Bottom.Medial			L.Thigh.Top.Lateral			L.Thigh.Top.Medial			L.TT			R.Ankle			R.Ankle.Medial			R.ASIS			R.GTR			R.Heel.Bottom			R.Heel.Lateral			R.Heel.Top			R.HF			R.Iliac.Crest			R.Knee			R.Knee.Medial			R.MT1			R.MT2			R.MT5			R.PSIS			R.Shank.Bottom.Lateral			R.Shank.Bottom.Medial			R.Shank.Top.Lateral			R.Shank.Top.Medial			R.Thigh.Bottom.Lateral			R.Thigh.Bottom.Medial			R.Thigh.Top.Lateral			R.Thigh.Top.Medial			R.TT			
		X1	Y1	Z1	X2	Y2	Z2	X3	Y3	Z3	X4	Y4	Z4	X5	Y5	Z5	X6	Y6	Z6	X7	Y7	Z7	X8	Y8	Z8	X9	Y9	Z9	X10	Y10	Z10	X11	Y11	Z11	X12	Y12	Z12	X13	Y13	Z13	X14	Y14	Z14	X15	Y15	Z15	X16	Y16	Z16	X17	Y17	Z17	X18	Y18	Z18	X19	Y19	Z19	X20	Y20	Z20	X21	Y21	Z21	X22	Y22	Z22	X23	Y23	Z23	X24	Y24	Z24	X25	Y25	Z25	X26	Y26	Z26	X27	Y27	Z27	X28	Y28	Z28	X29	Y29	Z29	X30	Y30	Z30	X31	Y31	Z31	X32	Y32	Z32	X33	Y33	Z33	X34	Y34	Z34	X35	Y35	Z35	X36	Y36	Z36	X37	Y37	Z37	X38	Y38	Z38	X39	Y39	Z39	X40	Y40	Z40	X41	Y41	Z41	X42	Y42	Z42	X43	Y43	Z43	X44	Y44	Z44	X45	Y45	Z45	X46	Y46	Z46	X47	Y47	Z47	X48	Y48	Z48	

57	0.3733333333333334	700.1486206054688	104.8144760131836	1043.676879882813	726.18994140625	110.0117645263672	1122.651611328125	833.2550659179688	978.9992065429688	1106.778198242188	753.8348388671875	888.7576293945313	1059.020751953125	637.7285766601563	38.21728134155273	1080.568115234375	671.2688598632813	57.38030624389648	1039.916748046875	648.777099609375	87.40980529785156	1082.861328125	731.9066162109375	449.6142272949219	1050.824340820313	761.1121826171875	1038.151123046875	1067.484985351563	741.1744995117188	500.7490844726563	1058.039184570313	742.515625	488.4480895996094	1175.515869140625	840.96044921875	56.94218444824219	1127.251220703125	851.3367919921875	66.85927581787109	1074.536376953125	820.4782104492188	50.90765380859375	1022.152404785156	674.8203125	1002.824829101563	1170.828735351563	709.6229858398438	185.3795776367188	1037.835083007813	669.4882202148438	182.7324676513672	1069.363647460938	706.0479736328125	265.72119140625	1032.999877929688	665.3673095703125	267.4474792480469	1067.020874023438	756.3633422851563	631.0167236328125	1043.205078125	694.062255859375	624.2929077148438	1081.028442382813	740.1184692382813	740.5604248046875	1043.401000976563	686.5930786132813	734.3223266601563	1086.176147460938	789.271728515625	422.0358581542969	1097.569213867188	692.6622314453125	107.1890411376953	1408.713256835938	716.455078125	118.4881820678711	1334.599487304688	826.0880126953125	987.6260986328125	1336.80859375	742.3701171875	894.1010131835938	1383.44482421875	631.0333862304688	39.40047454833984	1371.568725585938	659.033935546875	53.81405639648438	1409.646240234375	640.8290405273438	87.27979278564453	1371.901977539063	721.0015258789063	460.7518310546875	1389.681030273438	766.8746337890625	1030.964965820313	1362.412719726563	734.3759155273438	513.95947265625	1384.245483398438	756.053466796875	491.7889099121094	1273.37353515625	834.654296875	58.19735717773438	1329.225219726563	841.5122680664063	72.73764801025391	1370.133178710938	814.9551391601563	52.68719482421875	1434.485595703125	676.7637329101563	1010.568786621094	1259.00146484375	693.0770874023438	195.5258178710938	1411.963012695313	657.0491943359375	194.0370788574219	1370.588256835938	687.7312622070313	276.5534973144531	1410.942749023438	654.030029296875	273.8343811035156	1369.295288085938	753.2085571289063	607.9032592773438	1399.727416992188	690.1577758789063	601.7064208984375	1361.30712890625	738.9955444335938	717.7418212890625	1400.322631835938	680.880126953125	711.6611938476563	1360.81787109375	783.3224487304688	429.5158996582031	1355.766967773438	
58	0.38	700.139892578125	104.8227157592773	1043.680297851563	726.1952514648438	110.0207061767578	1122.639892578125	833.2562255859375	978.9972534179688	1106.769775390625	753.8490600585938	888.7499389648438	1059.0068359375	637.722900390625	38.21933746337891	1080.559448242188	671.2650756835938	57.37457656860352	1039.924072265625	648.7741088867188	87.42218017578125	1082.879272460938	731.919189453125	449.6137084960938	1050.813598632813	761.1030883789063	1038.151000976563	1067.465087890625	741.1856689453125	500.7402648925781	1058.022583007813	742.5306396484375	488.4496765136719	1175.500854492188	840.9547729492188	56.93576812744141	1127.24609375	851.3323364257813	66.85794830322266	1074.542236328125	820.4806518554688	50.90421295166016	1022.146789550781	674.8271484375	1002.822143554688	1170.825561523438	709.62890625	185.3762512207031	1037.835327148438	669.4903564453125	182.7383117675781	1069.357055664063	706.054931640625	265.7144165039063	1032.996459960938	665.3773193359375	267.4492797851563	1067.014770507813	756.3733520507813	631.027099609375	1043.189331054688	694.0794067382813	624.2867431640625	1081.02294921875	740.1356811523438	740.5462646484375	1043.39306640625	686.5960693359375	734.3169555664063	1086.163696289063	789.27392578125	422.0213317871094	1097.5615234375	692.6630249023438	107.1966171264648	1408.714599609375	716.4600219726563	118.4935073852539	1334.591674804688	826.1030883789063	987.6273193359375	1336.804443359375	742.3983154296875	894.0947875976563	1383.440307617188	631.0216064453125	39.40497589111328	1371.572509765625	659.023681640625	53.80460739135742	1409.653564453125	640.828857421875	87.27786254882813	1371.902099609375	721.026123046875	460.7388305664063	1389.681274414063	766.8849487304688	1030.962158203125	1362.40234375	734.3823852539063	513.95703125	1384.24169921875	756.0493774414063	491.7996520996094	1273.37060546875	834.6495971679688	58.20337295532227	1329.220092773438	841.4991455078125	72.73346710205078	1370.134521484375	814.9566650390625	52.6873664855957	1434.481079101563	676.780029296875	1010.565246582031	1258.9931640625	693.0751342773438	195.5385284423828	1411.96728515625	657.047119140625	194.0396728515625	1370.587646484375	687.7388305664063	276.5539855957031	1410.948364257813	654.0355834960938	273.84033203125	1369.28759765625	753.2239990234375	607.9027709960938	1399.72265625	690.1766967773438	601.7093505859375	1361.30908203125	739.0139770507813	717.7459716796875	1400.331787109375	680.8986206054688	711.6622314453125	1360.818237304688	783.3419799804688	429.51220703125	1355.764282226563	
59	0.3866666666666667	700.1343383789063	104.8175735473633	1043.682250976563	726.1965942382813	110.0188217163086	1122.64697265625	833.2615966796875	979.0047607421875	1106.742919921875	753.8359375	888.7471313476563	1058.98828125	637.7205810546875	38.22216796875	1080.566650390625	671.2612915039063	57.37414169311523	1039.92138671875	648.7706298828125	87.42002868652344	1082.866577148438	731.9164428710938	449.6189575195313	1050.799926757813	761.1033935546875	1038.151733398438	1067.464111328125	741.1921997070313	500.734130859375	1058.013793945313	742.555419921875	488.4470520019531	1175.473022460938	840.9650268554688	56.93357086181641	1127.239990234375	851.3306884765625	66.85102844238281	1074.534790039063	820.4808349609375	50.90627670288086	1022.146301269531	674.839599609375	1002.811279296875	1170.81689453125	709.622802734375	185.3780059814453	1037.8291015625	669.48583984375	182.738525390625	1069.356811523438	706.0527954101563	265.7135925292969	1032.981567382813	665.3801879882813	267.4504699707031	1067.006225585938	756.378173828125	631.0214233398438	1043.182250976563	694.0960083007813	624.2880859375	1081.007568359375	740.1446533203125	740.55029296875	1043.383422851563	686.6087646484375	734.3138427734375	1086.15185546875	789.29296875	422.0210571289063	1097.548950195313	692.6688232421875	107.1882781982422	1408.710205078125	716.451171875	118.4836502075195	1334.602172851563	826.12158203125	987.6220092773438	1336.776000976563	742.4170532226563	894.0902099609375	1383.436645507813	631.0195922851563	39.40158462524414	1371.573364257813	659.029296875	53.80737686157227	1409.652099609375	640.8264770507813	87.28275299072266	1371.911010742188	721.0253295898438	460.7491455078125	1389.681396484375	766.9157104492188	1030.950561523438	1362.37890625	734.3986206054688	513.9539794921875	1384.23779296875	756.060302734375	491.7879028320313	1273.36572265625	834.6470336914063	58.20455169677734	1329.2216796875	841.503662109375	72.73770904541016	1370.137084960938	814.9610595703125	52.69219970703125	1434.476196289063	676.799072265625	1010.559387207031	1258.991821289063	693.0785522460938	195.5364074707031	1411.9619140625	657.0504760742188	194.0495300292969	1370.584350585938	687.7396240234375	276.5615539550781	1410.943115234375	654.0333251953125	273.8483276367188	1369.289794921875	753.2415161132813	607.8994750976563	1399.709838867188	690.18896484375	601.7119140625	1361.307861328125	739.02978515625	717.7433471679688	1400.319580078125	680.9119262695313	711.6622314453125	1360.8173828125	783.345458984375	429.5111083984375	1355.75439453125	
60	0.3933333333333334	700.1334838867188	104.8258209228516	1043.684204101563	726.2037353515625	110.0120468139648	1122.647216796875	833.2718505859375	978.9959106445313	1106.732055664063	753.8472900390625	888.7420043945313	1058.9716796875	637.7160034179688	38.23165130615234	1080.568969726563	671.2577514648438	57.37751007080078	1039.923950195313	648.7762451171875	87.42487335205078	1082.871948242188	731.9373779296875	449.6063537597656	1050.797607421875	761.0897827148438	1038.144775390625	1067.457397460938	741.2118530273438	500.7405700683594	1057.996215820313	742.5960693359375	488.4423522949219	1175.479370117188	840.9576416015625	56.93198013305664	1127.24462890625	851.3369140625	66.85717010498047	1074.544921875	820.4780883789063	50.90170288085938	1022.155090332031	674.845458984375	1002.816284179688	1170.80712890625	709.6333618164063	185.3775634765625	1037.831909179688	669.491455078125	182.7449035644531	1069.356079101563	706.0613403320313	265.7162170410156	1032.9677734375	665.3858642578125	267.4515075683594	1067.004150390625	756.398193359375	631.0104370117188	1043.168579101563	694.1044311523438	624.2821044921875	1081.004638671875	740.159912109375	740.5482177734375	1043.3759765625	686.618408203125	734.3147583007813	1086.140747070313	789.3111572265625	422.0208740234375	1097.5283203125	692.6702880859375	107.1963043212891	1408.72021484375	716.44482421875	118.4958877563477	1334.587646484375	826.1420288085938	987.6154174804688	1336.757690429688	742.4412841796875	894.0869140625	1383.427124023438	631.0171508789063	39.40712738037109	1371.575073242188	659.0280151367188	53.81341934204102	1409.652709960938	640.8251342773438	87.29141998291016	1371.908813476563	721.0440063476563	460.7474670410156	1389.6748046875	766.9382934570313	1030.951538085938	1362.369506835938	734.4308471679688	513.9506225585938	1384.230712890625	756.0702514648438	491.7788696289063	1273.36083984375	834.6456909179688	58.18989944458008	1329.220458984375	841.506103515625	72.72749328613281	1370.137451171875	814.9511108398438	52.68620300292969	1434.47802734375	676.807861328125	1010.562255859375	1258.988403320313	693.0845336914063	195.5350341796875	1411.963989257813	657.049072265625	194.0483093261719	1370.58251953125	687.7520751953125	276.5617065429688	1410.947509765625	654.0410766601563	273.8479919433594	1369.285278320313	753.261962890625	607.90087890625	1399.699951171875	690.2076416015625	601.7197265625	1361.305419921875	739.0506591796875	717.7430419921875	1400.309936523438	680.926513671875	711.6561889648438	1360.8134765625	783.3558959960938	429.5003967285156	1355.748413085938	
